<?xml version="1.0" encoding="UTF-8"?>
<svg width="290px" height="290px" viewBox="0 0 290 290" version="1.1" xmlns="http://www.w3.org/2000/svg" xmlns:xlink="http://www.w3.org/1999/xlink">
    <title>Group</title>
    <g id="Page-1" stroke="none" stroke-width="1" fill="none" fill-rule="evenodd">
        <g id="Group" transform="translate(145.000000, 145.000000) rotate(-45.000000) translate(-145.000000, -145.000000) translate(42.000000, 43.000000)">
            <path d="M50,99 C58.80444,99 75.4711066,99 100,99 C100,75.5090012 100,59.0090012 100,49.5 C100,22.1619049 77.6142375,0 50,0 C22.3857625,0 0,22.1619049 0,49.5 C0,76.8380951 22.3857625,99 50,99 Z" id="Oval" fill="#2906FF"></path>
            <path d="M156,99 C164.80444,99 181.471107,99 206,99 C206,75.5090012 206,59.0090012 206,49.5 C206,22.1619049 183.614237,0 156,0 C128.385763,0 106,22.1619049 106,49.5 C106,76.8380951 128.385763,99 156,99 Z" id="Oval" fill="#2906FF" transform="translate(156.000000, 49.500000) scale(-1, 1) translate(-156.000000, -49.500000) "></path>
            <path d="M156,204 C164.80444,204 181.471107,204 206,204 C206,180.509001 206,164.009001 206,154.5 C206,127.161905 183.614237,105 156,105 C128.385763,105 106,127.161905 106,154.5 C106,181.838095 128.385763,204 156,204 Z" id="Oval" fill="#2906FF" transform="translate(156.000000, 154.500000) scale(-1, -1) translate(-156.000000, -154.500000) "></path>
            <path d="M50,204 C77.6142375,204 100,181.838095 100,154.5 C100,127.161905 77.6142375,105 50,105 C22.3857625,105 0,127.161905 0,154.5 C0,181.838095 22.3857625,204 50,204 Z" id="Oval" fill="#FFCB2C" transform="translate(50.000000, 154.500000) scale(1, -1) translate(-50.000000, -154.500000) "></path>
        </g>
    </g>
</svg>